<mxfile host="app.diagrams.net" modified="2020-09-28T07:30:20.416Z" agent="5.0 (Windows)" etag="dChjdedXRJ5h4wgB6ZtX" version="13.7.3" type="github">
  <diagram id="yxRp-eGAhmZKpX6KrpXm" name="Page-1">
    <mxGraphModel dx="1342" dy="592" grid="1" gridSize="10" guides="1" tooltips="1" connect="1" arrows="1" fold="1" page="1" pageScale="1" pageWidth="850" pageHeight="1100" math="0" shadow="0">
      <root>
        <mxCell id="0" />
        <mxCell id="1" parent="0" />
        <mxCell id="2ToKxdCEsRvUi-6CTcy5-3" value="" style="endArrow=none;dashed=1;html=1;dashPattern=1 3;strokeWidth=2;" edge="1" parent="1">
          <mxGeometry width="50" height="50" relative="1" as="geometry">
            <mxPoint x="320" y="559" as="sourcePoint" />
            <mxPoint x="320" y="79" as="targetPoint" />
          </mxGeometry>
        </mxCell>
        <mxCell id="2ToKxdCEsRvUi-6CTcy5-4" value="" style="endArrow=none;dashed=1;html=1;dashPattern=1 3;strokeWidth=2;" edge="1" parent="1">
          <mxGeometry width="50" height="50" relative="1" as="geometry">
            <mxPoint x="480" y="559" as="sourcePoint" />
            <mxPoint x="480" y="79" as="targetPoint" />
          </mxGeometry>
        </mxCell>
        <mxCell id="2ToKxdCEsRvUi-6CTcy5-6" value="" style="endArrow=none;dashed=1;html=1;dashPattern=1 3;strokeWidth=2;" edge="1" parent="1">
          <mxGeometry width="50" height="50" relative="1" as="geometry">
            <mxPoint x="640" y="560" as="sourcePoint" />
            <mxPoint x="640" y="80" as="targetPoint" />
          </mxGeometry>
        </mxCell>
        <mxCell id="2ToKxdCEsRvUi-6CTcy5-7" value="" style="endArrow=none;html=1;" edge="1" parent="1">
          <mxGeometry width="50" height="50" relative="1" as="geometry">
            <mxPoint x="850" y="80" as="sourcePoint" />
            <mxPoint y="80" as="targetPoint" />
          </mxGeometry>
        </mxCell>
        <mxCell id="2ToKxdCEsRvUi-6CTcy5-8" value="" style="endArrow=none;html=1;" edge="1" parent="1">
          <mxGeometry width="50" height="50" relative="1" as="geometry">
            <mxPoint x="850" y="158" as="sourcePoint" />
            <mxPoint y="158" as="targetPoint" />
          </mxGeometry>
        </mxCell>
        <mxCell id="2ToKxdCEsRvUi-6CTcy5-9" value="VTC" style="rounded=1;whiteSpace=wrap;html=1;" vertex="1" parent="1">
          <mxGeometry x="97" y="97" width="120" height="43" as="geometry" />
        </mxCell>
        <mxCell id="2ToKxdCEsRvUi-6CTcy5-11" value="REGIONAL OFFICE" style="rounded=1;whiteSpace=wrap;html=1;" vertex="1" parent="1">
          <mxGeometry x="342" y="97" width="120" height="43" as="geometry" />
        </mxCell>
        <mxCell id="2ToKxdCEsRvUi-6CTcy5-13" value="DIRECTOR" style="rounded=1;whiteSpace=wrap;html=1;" vertex="1" parent="1">
          <mxGeometry x="502" y="97" width="120" height="43" as="geometry" />
        </mxCell>
        <mxCell id="2ToKxdCEsRvUi-6CTcy5-15" value="DDO" style="rounded=1;whiteSpace=wrap;html=1;" vertex="1" parent="1">
          <mxGeometry x="681" y="97" width="120" height="43" as="geometry" />
        </mxCell>
        <mxCell id="2ToKxdCEsRvUi-6CTcy5-56" style="edgeStyle=orthogonalEdgeStyle;rounded=0;orthogonalLoop=1;jettySize=auto;html=1;entryX=0.5;entryY=0;entryDx=0;entryDy=0;" edge="1" parent="1" source="2ToKxdCEsRvUi-6CTcy5-18" target="2ToKxdCEsRvUi-6CTcy5-55">
          <mxGeometry relative="1" as="geometry" />
        </mxCell>
        <mxCell id="2ToKxdCEsRvUi-6CTcy5-18" value="Start" style="ellipse;whiteSpace=wrap;html=1;" vertex="1" parent="1">
          <mxGeometry x="69" y="160" width="60" height="29" as="geometry" />
        </mxCell>
        <mxCell id="2ToKxdCEsRvUi-6CTcy5-24" value="" style="edgeStyle=orthogonalEdgeStyle;rounded=0;orthogonalLoop=1;jettySize=auto;html=1;" edge="1" parent="1" source="2ToKxdCEsRvUi-6CTcy5-21" target="2ToKxdCEsRvUi-6CTcy5-23">
          <mxGeometry relative="1" as="geometry" />
        </mxCell>
        <mxCell id="2ToKxdCEsRvUi-6CTcy5-21" value="Sanction Details View " style="whiteSpace=wrap;html=1;" vertex="1" parent="1">
          <mxGeometry x="44" y="313" width="110" height="35" as="geometry" />
        </mxCell>
        <mxCell id="2ToKxdCEsRvUi-6CTcy5-28" value="" style="edgeStyle=orthogonalEdgeStyle;rounded=0;orthogonalLoop=1;jettySize=auto;html=1;" edge="1" parent="1" source="2ToKxdCEsRvUi-6CTcy5-23" target="2ToKxdCEsRvUi-6CTcy5-27">
          <mxGeometry relative="1" as="geometry" />
        </mxCell>
        <mxCell id="2ToKxdCEsRvUi-6CTcy5-23" value="UC Submission" style="whiteSpace=wrap;html=1;" vertex="1" parent="1">
          <mxGeometry x="44" y="400" width="110" height="35" as="geometry" />
        </mxCell>
        <mxCell id="2ToKxdCEsRvUi-6CTcy5-32" value="" style="edgeStyle=orthogonalEdgeStyle;rounded=0;orthogonalLoop=1;jettySize=auto;html=1;entryX=0;entryY=0.5;entryDx=0;entryDy=0;" edge="1" parent="1" source="2ToKxdCEsRvUi-6CTcy5-27" target="2ToKxdCEsRvUi-6CTcy5-31">
          <mxGeometry relative="1" as="geometry">
            <Array as="points">
              <mxPoint x="300" y="418" />
              <mxPoint x="300" y="259" />
            </Array>
          </mxGeometry>
        </mxCell>
        <mxCell id="2ToKxdCEsRvUi-6CTcy5-27" value="UC Send?" style="rhombus;whiteSpace=wrap;html=1;" vertex="1" parent="1">
          <mxGeometry x="195" y="377.5" width="80" height="80" as="geometry" />
        </mxCell>
        <mxCell id="2ToKxdCEsRvUi-6CTcy5-35" value="" style="edgeStyle=orthogonalEdgeStyle;rounded=0;orthogonalLoop=1;jettySize=auto;html=1;" edge="1" parent="1" source="2ToKxdCEsRvUi-6CTcy5-31" target="2ToKxdCEsRvUi-6CTcy5-34">
          <mxGeometry relative="1" as="geometry" />
        </mxCell>
        <mxCell id="2ToKxdCEsRvUi-6CTcy5-31" value="Individual UC Verify &amp;amp; Forward" style="whiteSpace=wrap;html=1;" vertex="1" parent="1">
          <mxGeometry x="335" y="240" width="120" height="38" as="geometry" />
        </mxCell>
        <mxCell id="2ToKxdCEsRvUi-6CTcy5-33" value="Yes" style="text;html=1;align=center;verticalAlign=middle;resizable=0;points=[];autosize=1;" vertex="1" parent="1">
          <mxGeometry x="263" y="356" width="40" height="20" as="geometry" />
        </mxCell>
        <mxCell id="2ToKxdCEsRvUi-6CTcy5-37" value="" style="edgeStyle=orthogonalEdgeStyle;rounded=0;orthogonalLoop=1;jettySize=auto;html=1;entryX=0;entryY=0.5;entryDx=0;entryDy=0;" edge="1" parent="1" source="2ToKxdCEsRvUi-6CTcy5-34" target="2ToKxdCEsRvUi-6CTcy5-36">
          <mxGeometry relative="1" as="geometry" />
        </mxCell>
        <mxCell id="2ToKxdCEsRvUi-6CTcy5-39" style="edgeStyle=orthogonalEdgeStyle;rounded=0;orthogonalLoop=1;jettySize=auto;html=1;entryX=0.5;entryY=1;entryDx=0;entryDy=0;" edge="1" parent="1" source="2ToKxdCEsRvUi-6CTcy5-34" target="2ToKxdCEsRvUi-6CTcy5-27">
          <mxGeometry relative="1" as="geometry">
            <Array as="points">
              <mxPoint x="310" y="425" />
              <mxPoint x="310" y="478" />
              <mxPoint x="235" y="478" />
            </Array>
          </mxGeometry>
        </mxCell>
        <mxCell id="2ToKxdCEsRvUi-6CTcy5-34" value="UC correct?" style="rhombus;whiteSpace=wrap;html=1;" vertex="1" parent="1">
          <mxGeometry x="355" y="388.5" width="80" height="73.5" as="geometry" />
        </mxCell>
        <mxCell id="2ToKxdCEsRvUi-6CTcy5-64" value="" style="edgeStyle=orthogonalEdgeStyle;rounded=0;orthogonalLoop=1;jettySize=auto;html=1;" edge="1" parent="1" source="2ToKxdCEsRvUi-6CTcy5-36" target="2ToKxdCEsRvUi-6CTcy5-62">
          <mxGeometry relative="1" as="geometry" />
        </mxCell>
        <mxCell id="2ToKxdCEsRvUi-6CTcy5-36" value="Individual UC Verify &amp;amp; Accepetance" style="whiteSpace=wrap;html=1;" vertex="1" parent="1">
          <mxGeometry x="495" y="237.25" width="120" height="39.75" as="geometry" />
        </mxCell>
        <mxCell id="2ToKxdCEsRvUi-6CTcy5-38" value="Yes" style="text;html=1;align=center;verticalAlign=middle;resizable=0;points=[];autosize=1;" vertex="1" parent="1">
          <mxGeometry x="430" y="365" width="40" height="20" as="geometry" />
        </mxCell>
        <mxCell id="2ToKxdCEsRvUi-6CTcy5-40" value="No" style="text;html=1;align=center;verticalAlign=middle;resizable=0;points=[];autosize=1;" vertex="1" parent="1">
          <mxGeometry x="325" y="425" width="30" height="20" as="geometry" />
        </mxCell>
        <mxCell id="2ToKxdCEsRvUi-6CTcy5-44" value="" style="edgeStyle=orthogonalEdgeStyle;rounded=0;orthogonalLoop=1;jettySize=auto;html=1;" edge="1" parent="1" source="2ToKxdCEsRvUi-6CTcy5-41" target="2ToKxdCEsRvUi-6CTcy5-43">
          <mxGeometry relative="1" as="geometry" />
        </mxCell>
        <mxCell id="2ToKxdCEsRvUi-6CTcy5-41" value="All UC Approved" style="whiteSpace=wrap;html=1;" vertex="1" parent="1">
          <mxGeometry x="495" y="466" width="120" height="39.75" as="geometry" />
        </mxCell>
        <mxCell id="2ToKxdCEsRvUi-6CTcy5-46" value="" style="edgeStyle=orthogonalEdgeStyle;rounded=0;orthogonalLoop=1;jettySize=auto;html=1;entryX=0;entryY=0.5;entryDx=0;entryDy=0;" edge="1" parent="1" source="2ToKxdCEsRvUi-6CTcy5-43" target="2ToKxdCEsRvUi-6CTcy5-45">
          <mxGeometry relative="1" as="geometry" />
        </mxCell>
        <mxCell id="2ToKxdCEsRvUi-6CTcy5-43" value="UC Approved?" style="rhombus;whiteSpace=wrap;html=1;" vertex="1" parent="1">
          <mxGeometry x="515" y="529.625" width="80" height="80" as="geometry" />
        </mxCell>
        <mxCell id="2ToKxdCEsRvUi-6CTcy5-48" value="" style="edgeStyle=orthogonalEdgeStyle;rounded=0;orthogonalLoop=1;jettySize=auto;html=1;" edge="1" parent="1" source="2ToKxdCEsRvUi-6CTcy5-45" target="2ToKxdCEsRvUi-6CTcy5-47">
          <mxGeometry relative="1" as="geometry" />
        </mxCell>
        <mxCell id="2ToKxdCEsRvUi-6CTcy5-45" value="Bill Generation" style="whiteSpace=wrap;html=1;" vertex="1" parent="1">
          <mxGeometry x="672" y="304.63" width="120" height="36.38" as="geometry" />
        </mxCell>
        <mxCell id="2ToKxdCEsRvUi-6CTcy5-50" value="" style="edgeStyle=orthogonalEdgeStyle;rounded=0;orthogonalLoop=1;jettySize=auto;html=1;" edge="1" parent="1" source="2ToKxdCEsRvUi-6CTcy5-47" target="2ToKxdCEsRvUi-6CTcy5-49">
          <mxGeometry relative="1" as="geometry" />
        </mxCell>
        <mxCell id="2ToKxdCEsRvUi-6CTcy5-47" value="Excel Download" style="whiteSpace=wrap;html=1;" vertex="1" parent="1">
          <mxGeometry x="672" y="381.01" width="120" height="36.38" as="geometry" />
        </mxCell>
        <mxCell id="2ToKxdCEsRvUi-6CTcy5-49" value="STOP" style="ellipse;whiteSpace=wrap;html=1;" vertex="1" parent="1">
          <mxGeometry x="691" y="475.58" width="82" height="29.42" as="geometry" />
        </mxCell>
        <mxCell id="2ToKxdCEsRvUi-6CTcy5-51" value="Recurring Grant (UC DETAILS)" style="rounded=1;whiteSpace=wrap;html=1;" vertex="1" parent="1">
          <mxGeometry x="190" width="510" height="30" as="geometry" />
        </mxCell>
        <mxCell id="2ToKxdCEsRvUi-6CTcy5-57" style="edgeStyle=orthogonalEdgeStyle;rounded=0;orthogonalLoop=1;jettySize=auto;html=1;entryX=0.5;entryY=0;entryDx=0;entryDy=0;" edge="1" parent="1" source="2ToKxdCEsRvUi-6CTcy5-55" target="2ToKxdCEsRvUi-6CTcy5-21">
          <mxGeometry relative="1" as="geometry" />
        </mxCell>
        <mxCell id="2ToKxdCEsRvUi-6CTcy5-55" value="Login into iOSMS Portal" style="whiteSpace=wrap;html=1;" vertex="1" parent="1">
          <mxGeometry x="44" y="229" width="110" height="35" as="geometry" />
        </mxCell>
        <mxCell id="2ToKxdCEsRvUi-6CTcy5-63" style="edgeStyle=orthogonalEdgeStyle;rounded=0;orthogonalLoop=1;jettySize=auto;html=1;" edge="1" parent="1" source="2ToKxdCEsRvUi-6CTcy5-62" target="2ToKxdCEsRvUi-6CTcy5-41">
          <mxGeometry relative="1" as="geometry" />
        </mxCell>
        <mxCell id="2ToKxdCEsRvUi-6CTcy5-65" style="edgeStyle=orthogonalEdgeStyle;rounded=0;orthogonalLoop=1;jettySize=auto;html=1;entryX=0.5;entryY=1;entryDx=0;entryDy=0;" edge="1" parent="1" source="2ToKxdCEsRvUi-6CTcy5-62" target="2ToKxdCEsRvUi-6CTcy5-34">
          <mxGeometry relative="1" as="geometry">
            <Array as="points">
              <mxPoint x="490" y="365" />
              <mxPoint x="490" y="482" />
              <mxPoint x="395" y="482" />
            </Array>
          </mxGeometry>
        </mxCell>
        <mxCell id="2ToKxdCEsRvUi-6CTcy5-62" value="UC Accept?" style="rhombus;whiteSpace=wrap;html=1;" vertex="1" parent="1">
          <mxGeometry x="515" y="325.005" width="80" height="80" as="geometry" />
        </mxCell>
        <mxCell id="2ToKxdCEsRvUi-6CTcy5-66" value="No" style="text;html=1;align=center;verticalAlign=middle;resizable=0;points=[];autosize=1;" vertex="1" parent="1">
          <mxGeometry x="485" y="340" width="30" height="20" as="geometry" />
        </mxCell>
        <mxCell id="2ToKxdCEsRvUi-6CTcy5-67" value="Yes" style="text;html=1;align=center;verticalAlign=middle;resizable=0;points=[];autosize=1;" vertex="1" parent="1">
          <mxGeometry x="550" y="420" width="40" height="20" as="geometry" />
        </mxCell>
      </root>
    </mxGraphModel>
  </diagram>
</mxfile>
